<svg width="205" height="211" viewBox="0 0 205 211" fill="none" xmlns="http://www.w3.org/2000/svg">
<g id="Notifications Icon" clip-path="url(#clip0_18_80)">
<g id="Bell Frame">
<g id="notification-bell">
<g id="Bell Group">
<path id="Bell body" d="M157.639 109.634L159.537 113.789C166.779 129.634 157.348 148.154 140.42 151.328L139.271 151.544C114.701 156.152 89.5056 156.152 64.9351 151.544C47.8692 148.343 38.8405 129.187 47.0988 113.7L48.723 110.654C53.1577 102.337 55.48 93.0297 55.48 83.5741V73.9568C55.48 57.7705 64.5092 42.9787 78.7916 35.7673C93.5287 28.3265 110.798 28.0734 125.74 35.0792L127.208 35.7673C142.514 42.9432 152.313 58.4905 152.313 75.5974V85.1371C152.313 93.5982 154.13 101.958 157.639 109.634Z" stroke="black" stroke-width="15"/>
<g id="Bell base">
<mask id="path-2-inside-1_18_80" fill="white">
<path d="M125 165.5C126.657 165.5 128.027 166.854 127.728 168.484C127.424 170.149 126.864 171.782 126.059 173.345C124.777 175.832 122.899 178.092 120.531 179.996C118.163 181.899 115.352 183.409 112.258 184.44C109.165 185.47 105.849 186 102.5 186C99.1513 186 95.8354 185.47 92.7416 184.44C89.6478 183.409 86.8367 181.899 84.4688 179.996C82.1009 178.092 80.2226 175.832 78.9411 173.345C78.136 171.782 77.5763 170.149 77.2715 168.484C76.9733 166.854 78.3431 165.5 80 165.5L102.5 165.5H125Z"/>
</mask>
<path d="M125 165.5C126.657 165.5 128.027 166.854 127.728 168.484C127.424 170.149 126.864 171.782 126.059 173.345C124.777 175.832 122.899 178.092 120.531 179.996C118.163 181.899 115.352 183.409 112.258 184.44C109.165 185.47 105.849 186 102.5 186C99.1513 186 95.8354 185.47 92.7416 184.44C89.6478 183.409 86.8367 181.899 84.4688 179.996C82.1009 178.092 80.2226 175.832 78.9411 173.345C78.136 171.782 77.5763 170.149 77.2715 168.484C76.9733 166.854 78.3431 165.5 80 165.5L102.5 165.5H125Z" stroke="black" stroke-width="24" mask="url(#path-2-inside-1_18_80)"/>
</g>
</g>
</g>
</g>
</g>
<defs>
<clipPath id="clip0_18_80">
<rect width="205" height="211" fill="white"/>
</clipPath>
</defs>
</svg>
