<svg width="205" height="211" viewBox="0 0 205 211" fill="none" xmlns="http://www.w3.org/2000/svg">
<g id="Notifications Icon Outline">
<g id="Bell Group">
<path id="Bell body" d="M167.826 107.481L170.078 112.41C178.67 131.209 167.48 153.183 147.397 156.949L146.034 157.205C116.882 162.672 86.9897 162.672 57.8382 157.205C37.5905 153.407 26.8786 130.679 36.6765 112.305L38.6036 108.691C43.865 98.8235 46.6203 87.781 46.6203 76.5625V65.1522C46.6203 45.9481 57.333 28.3984 74.2782 19.8426C91.7629 11.0144 112.251 10.7142 129.98 19.0262L131.722 19.8426C149.881 28.3564 161.507 46.8022 161.507 67.0987V78.4169C161.507 88.4555 163.663 98.3736 167.826 107.481Z" stroke="black" stroke-width="15"/>
<g id="Bell base">
<mask id="path-2-inside-1_48_43" fill="white">
<path d="M129.661 173.763C131.318 173.763 132.684 175.113 132.432 176.751C132.098 178.918 131.402 181.044 130.358 183.07C128.838 186.021 126.609 188.702 123.8 190.961C120.99 193.219 117.655 195.011 113.985 196.233C110.314 197.456 106.38 198.085 102.407 198.085C98.4338 198.085 94.4996 197.456 90.829 196.233C87.1584 195.011 83.8232 193.219 81.0138 190.961C78.2045 188.702 75.976 186.021 74.4556 183.07C73.4116 181.044 72.7156 178.918 72.3818 176.751C72.1296 175.113 73.4957 173.763 75.1526 173.763L102.407 173.763H129.661Z"/>
</mask>
<path d="M129.661 173.763C131.318 173.763 132.684 175.113 132.432 176.751C132.098 178.918 131.402 181.044 130.358 183.07C128.838 186.021 126.609 188.702 123.8 190.961C120.99 193.219 117.655 195.011 113.985 196.233C110.314 197.456 106.38 198.085 102.407 198.085C98.4338 198.085 94.4996 197.456 90.829 196.233C87.1584 195.011 83.8232 193.219 81.0138 190.961C78.2045 188.702 75.976 186.021 74.4556 183.07C73.4116 181.044 72.7156 178.918 72.3818 176.751C72.1296 175.113 73.4957 173.763 75.1526 173.763L102.407 173.763H129.661Z" stroke="black" stroke-width="30" mask="url(#path-2-inside-1_48_43)"/>
</g>
</g>
</g>
</svg>
