<svg width="205" height="211" viewBox="0 0 205 211" fill="none" xmlns="http://www.w3.org/2000/svg">
<path fill-rule="evenodd" clip-rule="evenodd" d="M71.7051 147.41C107.993 147.41 137.41 117.993 137.41 81.7051C137.41 45.4172 107.993 16 71.7051 16C35.4172 16 6 45.4172 6 81.7051C6 117.993 35.4172 147.41 71.7051 147.41ZM73.4299 41.0249C77.5274 41.1679 80.0731 45.1988 79.1945 49.2035C78.316 53.2083 74.3158 55.6294 70.2253 55.9076C69.2803 55.9719 68.3376 56.0876 67.4016 56.2548C64.0206 56.8587 60.7918 58.1226 57.8993 59.9743C55.0069 61.826 52.5075 64.2293 50.5438 67.047C50.0001 67.8271 49.5005 68.6348 49.0465 69.4661C47.0816 73.0646 43.2083 75.684 39.2035 74.8055C35.1988 73.9269 32.6037 69.9277 34.189 66.1466C35.3058 63.4831 36.7035 60.9387 38.3627 58.5579C41.4412 54.1406 45.3595 50.3729 49.8941 47.4699C54.4287 44.5669 59.4906 42.5855 64.7909 41.6388C67.6477 41.1285 70.5435 40.9242 73.4299 41.0249Z" fill="black"/>
<path fill-rule="evenodd" clip-rule="evenodd" d="M94.6777 151.282C98.2913 176.754 120.185 196.342 146.655 196.342C175.65 196.342 199.155 172.837 199.155 143.842C199.155 114.847 175.65 91.3419 146.655 91.3419C145.785 91.3419 144.92 91.3631 144.06 91.4049C140.921 119.729 121.12 143.028 94.6777 151.282Z" fill="black"/>
<circle cx="168.949" cy="46.406" r="25.406" fill="black"/>
</svg>
