<svg width="205" height="211" viewBox="0 0 205 211" fill="none" xmlns="http://www.w3.org/2000/svg">
<circle cx="71.7051" cy="81.7051" r="58.2051" stroke="black" stroke-width="15"/>
<mask id="path-2-inside-1_47_21" fill="white">
<path d="M79.1946 49.2035C80.0731 45.1988 77.5274 41.1679 73.4299 41.0249C70.5435 40.9242 67.6477 41.1285 64.7909 41.6388C59.4906 42.5855 54.4287 44.5669 49.8941 47.4699C45.3595 50.3729 41.4412 54.1406 38.3627 58.5579C36.7035 60.9387 35.3058 63.4831 34.189 66.1466C32.6037 69.9277 35.1988 73.9269 39.2035 74.8055V74.8055C43.2083 75.684 47.0816 73.0646 49.0465 69.4661C49.5005 68.6348 50.0001 67.8271 50.5438 67.047C52.5075 64.2293 55.0069 61.826 57.8993 59.9743C60.7918 58.1226 64.0206 56.8587 67.4016 56.2548C68.3376 56.0876 69.2803 55.9719 70.2253 55.9077C74.3158 55.6294 78.316 53.2083 79.1946 49.2035V49.2035Z"/>
</mask>
<path d="M79.1946 49.2035C80.0731 45.1988 77.5274 41.1679 73.4299 41.0249C70.5435 40.9242 67.6477 41.1285 64.7909 41.6388C59.4906 42.5855 54.4287 44.5669 49.8941 47.4699C45.3595 50.3729 41.4412 54.1406 38.3627 58.5579C36.7035 60.9387 35.3058 63.4831 34.189 66.1466C32.6037 69.9277 35.1988 73.9269 39.2035 74.8055V74.8055C43.2083 75.684 47.0816 73.0646 49.0465 69.4661C49.5005 68.6348 50.0001 67.8271 50.5438 67.047C52.5075 64.2293 55.0069 61.826 57.8993 59.9743C60.7918 58.1226 64.0206 56.8587 67.4016 56.2548C68.3376 56.0876 69.2803 55.9719 70.2253 55.9077C74.3158 55.6294 78.316 53.2083 79.1946 49.2035V49.2035Z" stroke="black" stroke-width="30" mask="url(#path-2-inside-1_47_21)"/>
<mask id="path-3-inside-2_47_21" fill="white">
<path fill-rule="evenodd" clip-rule="evenodd" d="M94.6777 151.282C98.2913 176.754 120.185 196.342 146.655 196.342C175.65 196.342 199.155 172.837 199.155 143.842C199.155 114.847 175.65 91.3419 146.655 91.3419C145.785 91.3419 144.92 91.3631 144.06 91.4049C143.468 96.7489 142.282 101.914 140.571 106.833C142.551 106.51 144.583 106.342 146.655 106.342C167.365 106.342 184.155 123.131 184.155 143.842C184.155 164.553 167.365 181.342 146.655 181.342C126.297 181.342 109.728 165.12 109.169 144.897C104.634 147.537 99.7794 149.69 94.6777 151.282Z"/>
</mask>
<path fill-rule="evenodd" clip-rule="evenodd" d="M94.6777 151.282C98.2913 176.754 120.185 196.342 146.655 196.342C175.65 196.342 199.155 172.837 199.155 143.842C199.155 114.847 175.65 91.3419 146.655 91.3419C145.785 91.3419 144.92 91.3631 144.06 91.4049C143.468 96.7489 142.282 101.914 140.571 106.833C142.551 106.51 144.583 106.342 146.655 106.342C167.365 106.342 184.155 123.131 184.155 143.842C184.155 164.553 167.365 181.342 146.655 181.342C126.297 181.342 109.728 165.12 109.169 144.897C104.634 147.537 99.7794 149.69 94.6777 151.282Z" fill="white"/>
<path d="M94.6777 151.282L90.2081 136.964L78.0353 140.763L79.8264 153.389L94.6777 151.282ZM144.06 91.4049L143.331 76.4226L130.56 77.0442L129.151 89.7525L144.06 91.4049ZM140.571 106.833L126.404 101.904L118.129 125.692L142.986 121.637L140.571 106.833ZM109.169 144.897L124.163 144.482L123.466 119.215L101.622 131.934L109.169 144.897ZM79.8264 153.389C84.4744 186.152 112.61 211.342 146.655 211.342V181.342C127.761 181.342 112.108 167.355 109.529 149.175L79.8264 153.389ZM146.655 211.342C183.934 211.342 214.155 181.121 214.155 143.842H184.155C184.155 164.553 167.365 181.342 146.655 181.342V211.342ZM214.155 143.842C214.155 106.563 183.934 76.3419 146.655 76.3419V106.342C167.365 106.342 184.155 123.131 184.155 143.842H214.155ZM146.655 76.3419C145.541 76.3419 144.433 76.369 143.331 76.4226L144.789 106.387C145.406 106.357 146.028 106.342 146.655 106.342V76.3419ZM129.151 89.7525C128.684 93.9678 127.75 98.0345 126.404 101.904L154.738 111.761C156.815 105.793 158.251 99.5299 158.969 93.0573L129.151 89.7525ZM146.655 91.3419C143.771 91.3419 140.931 91.5758 138.156 92.0285L142.986 121.637C144.171 121.444 145.395 121.342 146.655 121.342V91.3419ZM199.155 143.842C199.155 114.847 175.65 91.3419 146.655 91.3419V121.342C159.081 121.342 169.155 131.416 169.155 143.842H199.155ZM146.655 196.342C175.65 196.342 199.155 172.837 199.155 143.842H169.155C169.155 156.268 159.081 166.342 146.655 166.342V196.342ZM94.1748 145.311C94.9568 173.631 118.151 196.342 146.655 196.342V166.342C134.442 166.342 124.498 156.608 124.163 144.482L94.1748 145.311ZM101.622 131.934C98.0456 134.016 94.2224 135.711 90.2081 136.964L99.1474 165.601C105.336 163.669 111.222 161.059 116.717 157.859L101.622 131.934Z" fill="black" mask="url(#path-3-inside-2_47_21)"/>
<circle cx="168.949" cy="46.406" r="18.906" stroke="black" stroke-width="13"/>
</svg>
