<svg width="205" height="211" viewBox="0 0 205 211" fill="none" xmlns="http://www.w3.org/2000/svg">
<g id="Friends Icon" clip-path="url(#clip0_18_86)">
<g id="Ellipse 5">
<mask id="path-1-inside-1_18_86" fill="white">
<path d="M103 194C114.046 194 123.327 184.752 119.322 174.458C119.076 173.824 118.818 173.195 118.547 172.57C115.607 165.775 111.298 159.602 105.866 154.402C100.434 149.202 93.9845 145.077 86.887 142.263C79.7894 139.448 72.1823 138 64.5 138C56.8177 138 49.2106 139.448 42.113 142.263C35.0155 145.077 28.5665 149.202 23.1343 154.402C17.702 159.602 13.3929 165.775 10.453 172.57C10.1825 173.195 9.92403 173.824 9.67772 174.458C5.67317 184.752 14.9543 194 26 194L64.5 194H103Z"/>
</mask>
<path d="M103 194C114.046 194 123.327 184.752 119.322 174.458C119.076 173.824 118.818 173.195 118.547 172.57C115.607 165.775 111.298 159.602 105.866 154.402C100.434 149.202 93.9845 145.077 86.887 142.263C79.7894 139.448 72.1823 138 64.5 138C56.8177 138 49.2106 139.448 42.113 142.263C35.0155 145.077 28.5665 149.202 23.1343 154.402C17.702 159.602 13.3929 165.775 10.453 172.57C10.1825 173.195 9.92403 173.824 9.67772 174.458C5.67317 184.752 14.9543 194 26 194L64.5 194H103Z" stroke="black" stroke-width="30" mask="url(#path-1-inside-1_18_86)"/>
</g>
<g id="Ellipse 6">
<mask id="path-2-inside-2_18_86" fill="white">
<path d="M178 169C186.284 169 193.199 162.158 190.918 154.194C189.266 148.425 186.65 142.915 183.141 137.888C176.713 128.679 167.576 121.501 156.887 117.263C146.198 113.024 134.435 111.915 123.087 114.076C116.979 115.239 111.139 117.321 105.772 120.217C98.2554 124.274 98.2836 134.331 104.454 140.238L130.15 164.836C132.942 167.508 136.657 169 140.522 169H178Z"/>
</mask>
<path d="M178 169C186.284 169 193.199 162.158 190.918 154.194C189.266 148.425 186.65 142.915 183.141 137.888C176.713 128.679 167.576 121.501 156.887 117.263C146.198 113.024 134.435 111.915 123.087 114.076C116.979 115.239 111.139 117.321 105.772 120.217C98.2554 124.274 98.2836 134.331 104.454 140.238L130.15 164.836C132.942 167.508 136.657 169 140.522 169H178Z" stroke="black" stroke-width="30" mask="url(#path-2-inside-2_18_86)"/>
</g>
<circle id="Ellipse 7" cx="65" cy="98" r="27.5" stroke="black" stroke-width="15"/>
<circle id="Ellipse 8" cx="135" cy="74" r="27.5" stroke="black" stroke-width="15"/>
</g>
<defs>
<clipPath id="clip0_18_86">
<rect width="205" height="211" fill="white"/>
</clipPath>
</defs>
</svg>
