<svg width="205" height="209" viewBox="0 0 205 209" fill="none" xmlns="http://www.w3.org/2000/svg">
<g id="Home Icon">
<path id="Subtract" fill-rule="evenodd" clip-rule="evenodd" d="M133.16 13.4293C115.192 -0.384895 90.1788 -0.384895 72.2104 13.4293L23.3414 51.0002C6.79963 63.7176 -0.105764 85.3699 6.01886 105.316L25.8014 169.742C32.2477 190.736 51.6379 205.066 73.5989 205.066H131.772C153.733 205.066 173.123 190.736 179.569 169.742L199.352 105.316C205.476 85.3699 198.571 63.7176 182.029 51.0002L133.16 13.4293ZM101.813 128.803C93.5289 128.803 86.8132 135.519 86.8132 143.803V175.425C86.8132 183.709 93.5289 190.425 101.813 190.425H103.557C111.842 190.425 118.557 183.709 118.557 175.425V143.803C118.557 135.519 111.842 128.803 103.557 128.803H101.813Z" fill="black"/>
</g>
</svg>
