<svg width="205" height="209" viewBox="0 0 205 209" fill="none" xmlns="http://www.w3.org/2000/svg">
<g id="Settings Icon">
<path id="Subtract" fill-rule="evenodd" clip-rule="evenodd" d="M123.353 22.7758C117.688 1.37393 87.312 1.37393 81.6469 22.7758C78.2507 35.6063 64.1628 42.3463 52.0296 36.9666C31.8733 28.0295 12.7509 51.3923 25.5775 69.3262L26.5715 70.716C34.2942 81.5137 30.6591 96.7287 19.0072 103.09C-0.53032 113.756 5.92278 143.678 28.1629 144.603C41.4122 145.154 51.1496 157.286 48.7829 170.334L48.539 171.678C44.613 193.323 71.8923 206.181 86.0891 189.378C94.6717 179.22 110.328 179.22 118.911 189.378C133.108 206.181 160.387 193.323 156.461 171.678L156.217 170.334C153.85 157.286 163.588 145.154 176.837 144.603C199.077 143.678 205.53 113.756 185.993 103.09C174.341 96.7287 170.706 81.5138 178.428 70.716L179.422 69.3262C192.249 51.3923 173.127 28.0295 152.97 36.9666C140.837 42.3463 126.749 35.6063 123.353 22.7758ZM102.5 149.413C127.122 149.413 147.082 129.452 147.082 104.83C147.082 80.2084 127.122 60.2482 102.5 60.2482C77.8779 60.2482 57.9178 80.2084 57.9178 104.83C57.9178 129.452 77.8779 149.413 102.5 149.413Z" fill="black"/>
</g>
</svg>
