<svg width="205" height="211" viewBox="0 0 205 211" fill="none" xmlns="http://www.w3.org/2000/svg">
<g id="Settings Icon">
<path id="Subtract" d="M85.8441 38.5827L92.1277 40.2459L92.1277 40.2459L85.8441 38.5827ZM121.135 38.5827L114.852 40.2459L114.852 40.2459L121.135 38.5827ZM60.7819 50.5908L63.4167 44.6487L63.4167 44.6487L60.7819 50.5908ZM38.3977 77.9727L33.1107 81.7538L33.1107 81.7538L38.3977 77.9727ZM39.2407 79.1513L44.5277 75.3701L44.5277 75.3701L39.2407 79.1513ZM32.8393 106.547L35.954 112.252L35.954 112.252L32.8393 106.547ZM40.5865 141.676L40.3163 148.17L40.3163 148.17L40.5865 141.676ZM58.0353 163.45L51.6397 162.29L51.6397 162.29L58.0353 163.45ZM57.8285 164.59L64.2242 165.75L64.2242 165.75L57.8285 164.59ZM89.6029 179.566L94.5681 183.761L94.5681 183.761L89.6029 179.566ZM117.377 179.566L112.411 183.761L112.411 183.761L117.377 179.566ZM149.151 164.59L142.755 165.75L142.755 165.75L149.151 164.59ZM148.944 163.45L155.34 162.29L155.34 162.29L148.944 163.45ZM166.393 141.676L166.663 148.17L166.663 148.17L166.393 141.676ZM174.14 106.547L171.025 112.252L171.025 112.252L174.14 106.547ZM167.739 79.1513L173.026 82.9324L173.026 82.9324L167.739 79.1513ZM168.582 77.9727L163.295 74.1915L163.295 74.1915L168.582 77.9727ZM146.198 50.5908L143.563 44.6487L143.563 44.6487L146.198 50.5908ZM92.1277 40.2459C95.2143 28.5847 111.765 28.5847 114.852 40.2459L127.419 36.9195C120.918 12.3602 86.061 12.3602 79.5605 36.9195L92.1277 40.2459ZM58.1472 56.5328C72.0616 62.7026 88.2282 54.9786 92.1277 40.2459L79.5605 36.9195C77.7126 43.9012 70.0364 47.584 63.4167 44.6487L58.1472 56.5328ZM43.6848 74.1915C36.7187 64.4511 47.0847 51.6276 58.1472 56.5328L63.4167 44.6487C40.3675 34.4284 18.3701 61.1427 33.1107 81.7538L43.6848 74.1915ZM44.5277 75.3701L43.6848 74.1915L33.1107 81.7538L33.9536 82.9325L44.5277 75.3701ZM35.954 112.252C49.1685 105.037 53.3777 87.7446 44.5277 75.3701L33.9536 82.9325C38.1732 88.8325 36.2296 97.29 29.7245 100.842L35.954 112.252ZM40.8567 135.182C29.0723 134.691 24.8067 118.338 35.954 112.252L29.7245 100.842C7.80671 112.808 14.4612 147.095 40.3163 148.17L40.8567 135.182ZM64.431 164.61C67.1398 149.675 55.9975 135.812 40.8567 135.182L40.3163 148.17C47.5986 148.473 52.936 155.142 51.6397 162.29L64.431 164.61ZM64.2242 165.75L64.431 164.61L51.6397 162.29L51.4329 163.43L64.2242 165.75ZM84.6377 175.371C76.92 184.506 62.09 177.516 64.2242 165.75L51.4329 163.43C46.9232 188.294 78.2602 203.064 94.5681 183.761L84.6377 175.371ZM122.342 175.371C112.483 163.702 94.4968 163.702 84.6377 175.371L94.5681 183.761C99.2339 178.239 107.746 178.239 112.411 183.761L122.342 175.371ZM142.755 165.75C144.889 177.516 130.059 184.506 122.342 175.371L112.411 183.761C128.719 203.064 160.056 188.294 155.547 163.43L142.755 165.75ZM142.548 164.61L142.755 165.75L155.547 163.43L155.34 162.29L142.548 164.61ZM166.123 135.182C150.982 135.812 139.84 149.675 142.548 164.61L155.34 162.29C154.043 155.142 159.381 148.473 166.663 148.17L166.123 135.182ZM171.025 112.252C182.173 118.338 177.907 134.691 166.123 135.182L166.663 148.17C192.518 147.095 199.173 112.808 177.255 100.842L171.025 112.252ZM162.452 75.3701C153.602 87.7446 157.811 105.037 171.025 112.252L177.255 100.842C170.75 97.29 168.806 88.8325 173.026 82.9324L162.452 75.3701ZM163.295 74.1915L162.452 75.3701L173.026 82.9324L173.869 81.7538L163.295 74.1915ZM148.832 56.5328C159.895 51.6276 170.261 64.4511 163.295 74.1915L173.869 81.7538C188.609 61.1427 166.612 34.4284 143.563 44.6487L148.832 56.5328ZM114.852 40.2459C118.751 54.9786 134.918 62.7026 148.832 56.5328L143.563 44.6487C136.943 47.584 129.267 43.9012 127.419 36.9195L114.852 40.2459ZM134.763 108.019C134.763 125.264 120.78 139.246 103.528 139.246V152.246C127.957 152.246 147.763 132.447 147.763 108.019H134.763ZM103.528 76.7927C120.78 76.7927 134.763 90.7748 134.763 108.019H147.763C147.763 83.5922 127.957 63.7927 103.528 63.7927V76.7927ZM72.2921 108.019C72.2921 90.7748 86.2753 76.7927 103.528 76.7927V63.7927C79.0984 63.7927 59.2921 83.5922 59.2921 108.019H72.2921ZM103.528 139.246C86.2753 139.246 72.2921 125.264 72.2921 108.019H59.2921C59.2921 132.447 79.0984 152.246 103.528 152.246V139.246Z" fill="black"/>
</g>
</svg>
